# xmcd
# 
# Track frame offsets:
#   150
#   17995
#   36545
#   56459
#   76195
#   95384
#   113045
#   130798
#   146893
#   161460
#   177389
#   194056
#   209967
#   227969
#   245158
#   260021
#   278340
# 
# Disc length: 3929 seconds
# 
# Revision: 1
# Processed by: cddbd v1.5.1PL0 Copyright (c) Steve Scherf et al.
# Submitted via: VOLTOCDX V1.0.24 
# 
DISCID=030f5711
DTITLE=My Artist - My Title
DYEAR=2005
DGENRE=Description of the extended genre
TTITLE0=Im Sprung remix
TTITLE1=Yo Chevy (REMIX) feat. T-PAIN
TTITLE2=
TTITLE3=Bizness And Bitches
TTITLE4=Duck When I Buss
TTITLE5=Play
TTITLE6=
TTITLE7=Get Money
TTITLE8=im a hustler
TTITLE9=
TTITLE10=Just To Fight
TTITLE11=
TTITLE12=
TTITLE13=
TTITLE14=G-Shit
TTITLE15=Like That
TTITLE16=
EXTD=Extended CD description
EXTT0=
EXTT1=
EXTT2=
EXTT3=
EXTT4=
EXTT5=
EXTT6=
EXTT7=
EXTT8=
EXTT9=
EXTT10=
EXTT11=
EXTT12=
EXTT13=
EXTT14=
EXTT15=
EXTT16=
PLAYORDER=
